<?xml version="1.0" encoding="UTF-8"?>
<svg width="34px" height="34px" viewBox="0 0 34 34" version="1.1" xmlns="http://www.w3.org/2000/svg" xmlns:xlink="http://www.w3.org/1999/xlink">
    <title>logo/logo-youtube@1x</title>
    <g id="Symbols" stroke="none" stroke-width="1" fill="none" fill-rule="evenodd">
        <g id="Boxs/Copyright_jp" transform="translate(-19.000000, -351.000000)">
            <g id="social-entry" transform="translate(19.000000, 317.000000)">
                <g id="logo/logo-youtube" transform="translate(0.000000, 34.000000)">
                    <circle id="Oval-Copy-3" fill="#313952" cx="17" cy="17" r="17"></circle>
                    <g transform="translate(7.476190, 10.333333)" fill-rule="nonzero">
                        <path d="M19.5880561,2.16078431 C19.3574145,1.31596639 18.6819643,0.649859944 17.8252958,0.422408964 C16.2602282,0 9.99995797,0 9.99995797,0 C9.99995797,0 3.73968774,0 2.17462019,0.406162465 C1.33442602,0.633613445 0.642501418,1.31596639 0.411859884,2.16078431 C1.77635684e-15,3.70420168 1.77635684e-15,6.9047619 1.77635684e-15,6.9047619 C1.77635684e-15,6.9047619 1.77635684e-15,10.1215686 0.411859884,11.6487395 C0.642501418,12.4935574 1.31795163,13.1596639 2.17462019,13.3871148 C3.75616214,13.8095238 9.99995797,13.8095238 9.99995797,13.8095238 C9.99995797,13.8095238 16.2602282,13.8095238 17.8252958,13.4033613 C18.6819643,13.1759104 19.3574145,12.5098039 19.5880561,11.664986 C20,10.1215686 20,6.9210084 20,6.9210084 C20,6.9210084 20.0163903,3.70420168 19.5880561,2.16078431 Z" id="path7429" fill="#FF0000"></path>
                        <polygon id="polygon7431" fill="#FFFFFF" points="7.52380952 3.94557823 7.52380952 9.86394558 12.8571429 6.9047619"></polygon>
                    </g>
                </g>
            </g>
        </g>
    </g>
</svg>