<?xml version="1.0" encoding="UTF-8"?>
<svg width="34px" height="34px" viewBox="0 0 34 34" version="1.1" xmlns="http://www.w3.org/2000/svg" xmlns:xlink="http://www.w3.org/1999/xlink">
    <title>logo/logo-ig@1x</title>
    <defs>
        <radialGradient cx="30.7620383%" cy="107.702106%" fx="30.7620383%" fy="107.702106%" r="99.107386%" id="radialGradient-1">
            <stop stop-color="#FFDD55" offset="0%"></stop>
            <stop stop-color="#FFDD55" offset="10%"></stop>
            <stop stop-color="#FF543E" offset="50%"></stop>
            <stop stop-color="#C837AB" offset="100%"></stop>
        </radialGradient>
        <radialGradient cx="16.1099679%" cy="-10.4746791%" fx="16.1099679%" fy="-10.4746791%" r="81.5333753%" id="radialGradient-2">
            <stop stop-color="#3771C8" offset="0%"></stop>
            <stop stop-color="#3771C8" offset="12.8%"></stop>
            <stop stop-color="#6600FF" stop-opacity="0" offset="100%"></stop>
        </radialGradient>
    </defs>
    <g id="Symbols" stroke="none" stroke-width="1" fill="none" fill-rule="evenodd">
        <g id="Boxs/Copyright_jp" transform="translate(-63.000000, -351.000000)">
            <g id="social-entry" transform="translate(19.000000, 317.000000)">
                <g id="social-icons" transform="translate(0.000000, 34.000000)">
                    <g id="logo/logo-ig" transform="translate(44.000000, 0.000000)">
                        <circle id="Oval-Copy-3" fill="#313952" cx="17" cy="17" r="17"></circle>
                        <g transform="translate(7.000000, 7.000000)" fill-rule="nonzero">
                            <rect id="Rectangle" fill="url(#radialGradient-1)" x="0" y="0" width="20" height="20" rx="3.80952381"></rect>
                            <rect id="Rectangle" fill="url(#radialGradient-2)" x="0" y="0" width="20" height="20" rx="3.80952381"></rect>
                            <path d="M9.76244296,2.38095238 C7.75787843,2.38095238 7.50630835,2.38971726 6.71899856,2.42554563 C5.93322649,2.46152778 5.39687169,2.58592758 4.92756125,2.76845238 C4.4421048,2.95697421 4.03030488,3.20915675 3.62004267,3.61956845 C3.20947292,4.02982639 2.95728775,4.44162202 2.76814887,4.92691964 C2.58516086,5.39637897 2.46060599,5.93288194 2.42523856,6.71833829 C2.39017867,7.50563988 2.38095238,7.75736111 2.38095238,9.76190476 C2.38095238,11.7664484 2.38987112,12.017247 2.4255461,12.8045486 C2.46168239,13.5903125 2.58608349,14.1266617 2.76845642,14.5959673 C2.95713398,15.0814187 3.20931914,15.4932143 3.61973513,15.9034722 C4.02984356,16.3140377 4.44164349,16.5668353 4.92679239,16.7553571 C5.39641038,16.9378819 5.93291894,17.0622817 6.71853725,17.0982639 C7.50584704,17.1340923 7.75726334,17.1428571 9.7616741,17.1428571 C11.7663924,17.1428571 12.0171936,17.1340923 12.8045034,17.0982639 C13.5902755,17.0622817 14.1272454,16.9378819 14.5968634,16.7553571 C15.082166,16.5668353 15.4933509,16.3140377 15.9034593,15.9034722 C16.3140291,15.4932143 16.5662142,15.0814187 16.7553531,14.596121 C16.9368034,14.1266617 17.0613583,13.5901587 17.0982634,12.8047024 C17.1336309,12.0174008 17.1428571,11.7664484 17.1428571,9.76190476 C17.1428571,7.75736111 17.1336309,7.50579365 17.0982634,6.71849206 C17.0613583,5.93272817 16.9368034,5.39637897 16.7553531,4.92707341 C16.5662142,4.44162202 16.3140291,4.02982639 15.9034593,3.61956845 C15.4928896,3.20900298 15.0823198,2.95682044 14.596402,2.76845238 C14.1258614,2.58592758 13.5891991,2.46152778 12.803427,2.42554563 C12.0161172,2.38971726 11.7654698,2.38095238 9.76029016,2.38095238 L9.76244296,2.38095238 Z M9.10030313,3.71106151 C9.29682303,3.71075397 9.51610111,3.71106151 9.76244296,3.71106151 C11.7331778,3.71106151 11.9667566,3.71813492 12.7449939,3.75350198 C13.4646442,3.78640873 13.8552237,3.90665675 14.115405,4.00768353 C14.459853,4.14146329 14.705426,4.30138393 14.9636083,4.55971726 C15.2219443,4.8180506 15.3818666,5.06408234 15.5159553,5.40852679 C15.6169831,5.66839782 15.7373862,6.05897321 15.7701395,6.77861607 C15.8055069,7.55669147 15.8131955,7.79042163 15.8131955,9.76021329 C15.8131955,11.730005 15.8055069,11.9637351 15.7701395,12.7418105 C15.7372324,13.4614534 15.6169831,13.8520288 15.5159553,14.1118998 C15.3821741,14.4563442 15.2219443,14.7016071 14.9636083,14.9597867 C14.7052722,15.21812 14.4600068,15.3780407 14.115405,15.5118204 C13.8555312,15.6133085 13.4646442,15.733249 12.7449939,15.7661558 C11.9669104,15.8015228 11.7331778,15.8092113 9.76244296,15.8092113 C7.79155438,15.8092113 7.55797555,15.8015228 6.77989205,15.7661558 C6.0602417,15.7329415 5.66966223,15.6126935 5.40932718,15.5116667 C5.06487915,15.3778869 4.81884484,15.2179663 4.56050881,14.9596329 C4.30217279,14.7012996 4.14225049,14.4558829 4.00816179,14.1112847 C3.90713395,13.8514137 3.78673091,13.4608383 3.7539776,12.7411954 C3.71861016,11.96312 3.71153668,11.7293899 3.71153668,9.75836806 C3.71153668,7.78734623 3.71861016,7.55484623 3.7539776,6.77677083 C3.78688468,6.05712798 3.90713395,5.66655258 4.00816179,5.40637401 C4.14194295,5.06192956 4.30217279,4.81589782 4.56050881,4.55756448 C4.81884484,4.29923115 5.06487915,4.13931052 5.40932718,4.00522321 C5.66950846,3.90373512 6.0602417,3.78379464 6.77989205,3.75073413 C7.460792,3.71998016 7.7246638,3.71075397 9.10030313,3.70921627 L9.10030313,3.71106151 Z M9.76244296,5.97147817 C7.66915231,5.97147817 5.97197689,7.66863591 5.97197689,9.76190476 C5.97197689,11.8551736 7.66915231,13.5515625 9.76244296,13.5515625 C11.8557336,13.5515625 13.5524477,11.8551736 13.5524477,9.76190476 C13.5524477,7.66863591 11.8555798,5.97147817 9.76228919,5.97147817 L9.76244296,5.97147817 Z M9.76244296,7.3015873 C11.1211674,7.3015873 12.2227861,8.40304067 12.2227861,9.76190476 C12.2227861,11.1206151 11.1211674,12.2222222 9.76244296,12.2222222 C8.40356472,12.2222222 7.30209987,11.1206151 7.30209987,9.76190476 C7.30209987,8.40304067 8.40356472,7.3015873 9.76244296,7.3015873 Z" id="Shape" fill="#FFFFFF"></path>
                        </g>
                    </g>
                </g>
            </g>
        </g>
    </g>
</svg>