<?xml version="1.0" encoding="UTF-8"?>
<svg width="34px" height="34px" viewBox="0 0 34 34" version="1.1" xmlns="http://www.w3.org/2000/svg" xmlns:xlink="http://www.w3.org/1999/xlink">
    <title>logo/logo-Tiktok@1x</title>
    <g id="Symbols" stroke="none" stroke-width="1" fill="none" fill-rule="evenodd">
        <g id="Boxs/Copyright_jp" transform="translate(-283.000000, -351.000000)">
            <g id="social-entry" transform="translate(19.000000, 317.000000)">
                <g id="social-icons" transform="translate(0.000000, 34.000000)">
                    <g id="logo/logo-Tiktok" transform="translate(264.000000, 0.000000)">
                        <circle id="Oval-Copy-4" fill="#313952" cx="17" cy="17" r="17"></circle>
                        <g id="tik-tok-seeklogo.com-01" transform="translate(7.000000, 7.000000)">
                            <circle id="椭圆形" fill-opacity="0" fill="#5865F2" cx="10" cy="10" r="10"></circle>
                            <path d="M2.98118024,17.6649589 C-1.15220115,14.0790452 1.51898517,6.09285965 7.87417312,7.09883162 L7.87417312,7.83791306 C2.50898932,7.58927146 0.145753606,13.9900817 2.98118024,17.6649589 Z M14.5692473,3.81402521 C15.2216463,4.33640068 16.122687,4.71962809 17.3636138,4.7949049 L17.3636138,5.52029965 C15.9903823,5.26481471 15.1212772,4.58048004 14.5692473,3.81402521 Z M12.847005,0 C12.847005,0.26689052 12.8812218,0.55431108 12.924563,0.81663937 L10.3902436,0.81663937 L10.3902436,13.4289273 C10.3902436,14.0106118 10.3309346,14.528425 10.2123166,14.982367 C9.18125233,17.2543581 6.26142442,16.9578131 5.45390951,15.39753 C6.65605741,16.1502981 8.63150348,15.94956 9.4412995,14.1634465 C9.55991751,13.7095045 9.61922652,13.1916913 9.61922652,12.6100068 L9.61922652,0 L12.847005,0 Z" id="形状" fill="#00F7EF"></path>
                            <path d="M13.6180221,0.81663937 L13.6180221,0.832607179 C13.6180221,1.12458997 13.7047045,5.34693487 18.1346309,5.60926316 C18.1346309,9.53734415 18.136912,5.60926316 18.136912,8.8712584 C17.8038691,8.89178844 15.2193652,8.70473697 13.6134599,7.26991528 L13.6088976,13.620541 C13.6476766,16.4970277 12.0486146,19.3164865 9.05122874,19.8844843 C8.21177822,20.0441624 7.45444785,20.0624113 6.1861476,19.7841152 C-1.12482776,17.5965254 1.30456031,6.75210205 8.64519017,7.91318987 C8.64519017,11.4147023 8.64747129,7.91318987 8.64747129,11.4147023 C5.6135876,10.9676036 4.60077229,13.4905174 5.40600608,15.2971609 C6.14052529,16.9418452 9.15844117,17.2976993 10.2123166,14.9778048 C10.3309346,14.5238628 10.3902436,14.0060495 10.3902436,13.4243651 L10.3902436,0.81663937 L13.6180221,0.81663937 Z" id="路径" fill="#FFFFFF" fill-rule="nonzero"></path>
                            <path d="M7.87417312,7.83791306 C8.12509583,7.84931863 8.38286188,7.8744109 8.64519017,7.91547098 C8.64519017,11.4169834 8.64747129,7.91547098 8.64747129,11.4169834 C5.6135876,10.9698847 4.60077229,13.4927985 5.40600608,15.299442 C5.41969278,15.3313777 5.4379417,15.3655944 5.45390951,15.39753 C5.09349325,15.1716996 4.80379158,14.8614679 4.63498902,14.4828027 C3.82975523,12.6761592 4.84257054,10.1532453 7.87645423,10.600344 C7.87417312,7.39081441 7.87417312,10.0597196 7.87417312,7.83791306 Z M17.3636138,5.51801853 C17.6054121,5.56135973 17.8631781,5.59329535 18.1346309,5.60926316 C18.1346309,9.53734415 18.136912,5.60926316 18.136912,8.8712584 C17.8038691,8.89178844 15.2193652,8.70473697 13.6134599,7.26991528 L13.6088976,13.620541 C13.6476766,16.4970277 12.0486146,19.3164865 9.05122874,19.8844843 C8.21177822,20.0441624 7.45444785,20.0624113 6.1861476,19.7841152 C4.75816926,19.3575466 3.70201276,18.5979351 2.98118024,17.6626778 C3.62445483,18.2215511 4.43196974,18.673212 5.41513054,18.9674759 C6.68343079,19.2434908 7.43848004,19.2252419 8.27793057,19.0678449 C11.2753164,18.5021283 12.8766595,15.6803883 12.8378806,12.8061827 L12.8424428,6.45327591 C14.4506293,7.8880976 17.0328521,8.07514907 17.3681761,8.05461903 C17.3681761,5.02529757 17.3636138,8.1960482 17.3636138,5.51801853 Z M13.6180221,0.81663937 L13.6180221,0.832607179 C13.6180221,1.00369085 13.6476766,2.52975715 14.5692473,3.81402521 C13.4606251,2.92667126 13.063711,1.64468432 12.924563,0.81663937 L13.6180221,0.81663937 Z" id="形状" fill="#FF004F"></path>
                        </g>
                    </g>
                </g>
            </g>
        </g>
    </g>
</svg>