<?xml version="1.0" encoding="UTF-8"?>
<svg width="34px" height="34px" viewBox="0 0 34 34" version="1.1" xmlns="http://www.w3.org/2000/svg" xmlns:xlink="http://www.w3.org/1999/xlink">
    <title>logo/logo-twitch备份@1x</title>
    <g id="Symbols" stroke="none" stroke-width="1" fill="none" fill-rule="evenodd">
        <g id="Boxs/Copyright_jp" transform="translate(-998.000000, -71.000000)">
            <g id="编组-2" transform="translate(442.000000, 37.000000)">
                <g id="social-entry" transform="translate(336.000000, 0.000000)">
                    <g id="social-icons" transform="translate(0.000000, 34.000000)">
                        <g id="logo/logo-twitch备份" transform="translate(220.000000, 0.000000)">
                            <circle id="Oval-Copy-4" fill="#313952" cx="17" cy="17" r="17"></circle>
                            <g id="logo/social/social-youtube" transform="translate(7.000000, 7.000000)">
                                <circle id="椭圆形" fill="#5865F2" cx="10" cy="10" r="10"></circle>
                                <path d="M12.9468363,14.1524684 C12.9468363,14.1524684 12.5652316,13.6961464 12.2472277,13.2928851 C13.6358448,12.9002359 14.1658513,12.0300404 14.1658513,12.0300404 C13.731246,12.3165682 13.3178409,12.5181989 12.9468363,12.6561567 C12.4168298,12.8790116 11.9080235,13.0275816 11.4098174,13.1124787 C10.3922049,13.3034973 9.45939337,13.2504365 8.66438356,13.1018666 C8.06017617,12.985133 7.54076975,12.8153388 7.1061644,12.6455445 C6.8623614,12.5500353 6.59735813,12.4333018 6.33235487,12.2847318 C6.30055448,12.2635075 6.26875409,12.2528954 6.23695369,12.2316711 C6.21575343,12.221059 6.2051533,12.2104468 6.19455318,12.1998347 C6.00375082,12.0937133 5.89774952,12.0194283 5.89774952,12.0194283 C5.89774952,12.0194283 6.40655578,12.8683995 7.75277236,13.2716608 C7.43476844,13.6749222 7.04256361,14.1524684 7.04256361,14.1524684 C4.69993477,14.0781835 3.80952381,12.5394231 3.80952381,12.5394231 C3.80952381,9.12231409 5.3359426,6.3525456 5.3359426,6.3525456 C6.8623614,5.20643449 8.31457929,5.23818272 8.31457929,5.23818272 L8.42058058,5.36561659 C6.51255709,5.91744786 5.63274626,6.75580691 5.63274626,6.75580691 C5.63274626,6.75580691 5.86594913,6.62846123 6.25815395,6.44805486 C7.39236792,5.94928428 8.29337899,5.81132646 8.66438356,5.77949004 C8.72798439,5.76887791 8.780985,5.75826577 8.84458576,5.75826577 C9.49119375,5.67336864 10.2226027,5.65214436 10.9858122,5.73704148 C11.9928246,5.85377502 13.0740378,6.15091494 14.1764514,6.75580691 C14.1764514,6.75580691 13.3390411,5.95989642 11.5370189,5.40806515 L11.6854208,5.23818272 C11.6854208,5.23818272 13.1376387,5.20643449 14.6640575,6.3525456 C14.6640575,6.3525456 16.1904762,9.12231409 16.1904762,12.5394231 C16.1904762,12.5394231 15.2894652,14.0781835 12.9468363,14.1524684 Z M7.77135089,9.20008748 C7.21789289,9.20008748 6.78095238,9.75778806 6.78095238,10.4381828 C6.78095238,11.1185774 7.22760268,11.676278 7.77135089,11.676278 C8.32480883,11.676278 8.7617494,11.1185774 8.7617494,10.4381828 C8.77145914,9.75778806 8.32480883,9.20008748 7.77135089,9.20008748 M11.7333333,9.20008748 C11.1798319,9.20008748 10.7428571,9.75778806 10.7428571,10.4381828 C10.7428571,11.1185774 11.1895424,11.676278 11.7333333,11.676278 C12.2868347,11.676278 12.7238095,11.1185774 12.7238095,10.4381828 C12.7238095,9.75778806 12.2868347,9.20008748 11.7333333,9.20008748" id="形状" fill="#FFFFFF" fill-rule="nonzero"></path>
                            </g>
                        </g>
                    </g>
                </g>
            </g>
        </g>
    </g>
</svg>