<svg xmlns="http://www.w3.org/2000/svg" xmlns:xlink="http://www.w3.org/1999/xlink" width="34" height="34" viewBox="0 0 34 34" version="1.1">
    <title>logo/logo-fb@1x</title>
    <g id="Symbols" stroke="none" stroke-width="1" fill="none" fill-rule="evenodd">
        <g id="area_about&amp;help" transform="translate(-109.000000, -42.000000)">
            <g id="Group-7" transform="translate(21.000000, 42.000000)">
                <g id="logo/logo-fb" transform="translate(88.000000, 0.000000)">
                    <circle id="Oval-Copy-3" fill="#313952" cx="17" cy="17" r="17"/>
                    <g id="logo/logo-fb" transform="translate(7.000000, 7.000000)">
                        <path d="M20,10 C20,4.47851563 15.5214844,0 10,0 C4.47851562,0 0,4.47851563 0,10 C0,14.9902344 3.65625,19.1289062 8.4375,19.8789062 L8.4375,12.890625 L5.8984375,12.890625 L5.8984375,10 L8.4375,10 L8.4375,7.796875 C8.4375,5.29101562 9.93164062,3.90625 12.2148438,3.90625 C13.3085938,3.90625 14.453125,4.1015625 14.453125,4.1015625 L14.453125,6.5625 L13.1914062,6.5625 C11.9492188,6.5625 11.5625,7.33398438 11.5625,8.125 L11.5625,10 L14.3359375,10 L13.8925781,12.890625 L11.5625,12.890625 L11.5625,19.8789062 C16.34375,19.1289062 20,14.9921875 20,10 Z" id="Path" fill="#1977F3" fill-rule="nonzero"/>
                        <path d="M13.8925781,12.890625 L14.3359375,10 L11.5625,10 L11.5625,8.125 C11.5625,7.33398438 11.9492188,6.5625 13.1914062,6.5625 L14.453125,6.5625 L14.453125,4.1015625 C14.453125,4.1015625 13.3085938,3.90625 12.2148438,3.90625 C9.93164062,3.90625 8.4375,5.2890625 8.4375,7.796875 L8.4375,10 L5.8984375,10 L5.8984375,12.890625 L8.4375,12.890625 L8.4375,19.8789062 C8.94726562,19.9589844 9.46875,20 10,20 C10.53125,20 11.0527344,19.9570312 11.5625,19.8789062 L11.5625,12.890625 L13.8925781,12.890625 Z" id="Path" fill="#FEFEFE" fill-rule="nonzero"/>
                        <g transform="translate(5.898438, 3.906250)"/>
                    </g>
                </g>
            </g>
        </g>
    </g>
</svg>